<?xml version="1.0" standalone="no"?>
<!DOCTYPE svg PUBLIC "-//W3C//DTD SVG 20010904//EN"
 "http://www.w3.org/TR/2001/REC-SVG-20010904/DTD/svg10.dtd">
<svg version="1.0" xmlns="http://www.w3.org/2000/svg"
 width="128.000000pt" height="128.000000pt" viewBox="0 0 128.000000 128.000000"
 preserveAspectRatio="xMidYMid meet">
<metadata>
Created by potrace 1.16, written by Peter Selinger 2001-2019
</metadata>
<g transform="translate(0.000000,128.000000) scale(0.100000,-0.100000)"
fill="#000000" stroke="none">
<path d="M398 1075 c-3 -3 -21 -8 -40 -10 -18 -2 -33 -4 -33 -5 0 -1 -7 -3
-15 -5 -91 -19 -251 -162 -265 -236 -2 -11 -10 -27 -16 -35 -7 -8 -12 -28 -11
-44 0 -17 -2 -30 -6 -30 -4 0 -7 -29 -7 -65 0 -36 3 -65 7 -65 4 0 7 -10 7
-22 -1 -39 54 -158 73 -158 4 0 8 -5 8 -12 0 -14 50 -68 62 -68 5 0 18 -9 30
-20 23 -21 93 -56 123 -62 11 -1 23 -7 27 -13 5 -6 8 -5 8 3 0 9 5 10 18 4 22
-12 112 -13 133 -1 12 6 19 5 22 -4 4 -9 6 -9 6 1 1 7 5 11 10 7 11 -6 101 35
101 47 0 4 9 8 20 8 10 0 23 6 27 13 4 8 15 16 24 20 9 3 29 22 44 41 23 30
25 39 15 51 -18 21 -29 19 -60 -12 -50 -52 -88 -79 -120 -88 -3 0 -23 -7 -44
-14 -56 -19 -193 -18 -232 2 -17 9 -34 14 -36 11 -3 -2 -11 2 -18 11 -7 8 -18
15 -24 15 -17 0 -82 63 -109 107 -33 53 -67 159 -67 210 0 24 4 43 8 43 4 0 8
8 9 18 5 45 16 82 29 93 8 6 14 17 14 24 0 6 26 37 59 68 56 53 150 106 188
106 10 0 35 2 56 5 21 4 44 3 50 -1 7 -4 21 -9 32 -10 18 -1 52 -9 65 -13 3
-1 8 -2 13 -1 4 0 7 -3 7 -9 0 -5 7 -10 15 -10 17 0 24 -5 79 -57 l33 -31 -31
-5 c-17 -3 -55 -4 -83 -2 -80 6 -83 0 -81 -230 0 -105 3 -196 6 -203 7 -20 71
-11 78 11 3 10 6 85 7 167 l1 148 28 4 28 5 0 -81 c0 -45 5 -88 10 -96 5 -8
10 -12 10 -8 0 4 10 4 23 -1 34 -13 47 15 47 104 0 42 4 76 10 77 6 0 16 1 23
2 9 1 13 -42 17 -169 l5 -170 40 0 40 0 3 209 c1 122 -2 214 -7 219 -5 5 -31
11 -58 12 -26 2 -52 4 -56 4 -5 1 -5 5 -2 11 10 17 -89 106 -153 139 -34 17
-64 31 -67 31 -3 0 -6 0 -7 1 -3 1 -25 4 -98 15 -25 3 -48 3 -52 -1z"/>
<path d="M352 857 c-21 -22 -22 -33 -22 -180 l0 -157 -34 0 c-19 0 -44 -9 -57
-19 -21 -17 -22 -21 -10 -44 13 -24 19 -26 102 -29 74 -3 89 0 98 14 7 11 11
90 11 213 l0 194 -30 16 c-36 19 -32 19 -58 -8z"/>
<path d="M974 855 c-14 -20 -20 -197 -8 -229 5 -13 24 -16 109 -16 l102 0 -1
-42 -1 -43 -80 -3 c-126 -3 -143 -13 -129 -68 l6 -25 147 3 146 3 0 125 0 125
-102 3 -103 3 0 44 0 45 95 -3 c104 -4 118 2 120 50 2 43 -26 52 -164 50 -110
-2 -125 -4 -137 -22z"/>
</g>
</svg>
